<mxfile host="app.diagrams.net" modified="2023-05-05T07:48:19.455Z" agent="Mozilla/5.0 (Macintosh; Intel Mac OS X 10_15_7) AppleWebKit/537.36 (KHTML, like Gecko) Chrome/112.0.0.0 Safari/537.36" version="21.2.9" etag="sattP5V7myvuO3JnC5Qw" type="github">
  <diagram name="페이지-1" id="zdYMNKtp6xgh96OMyWvW">
    <mxGraphModel>
      <root>
        <mxCell id="0" />
        <mxCell id="1" parent="0" />
      </root>
    </mxGraphModel>
  </diagram>
</mxfile>
